HIERARCHY
ROOT root
{
	OFFSET 0.000000 0.000000 0.000000
	CHANNELS 6 Xposition Yposition Zposition Zrotation Yrotation Xrotation
	JOINT lhip
	{
		OFFSET 0.058581 -0.082280 -0.017664
		CHANNELS 3 Zrotation Yrotation Xrotation
		JOINT lknee
		{
			OFFSET 0.043451 -0.386469 0.008037
			CHANNELS 3 Zrotation Yrotation Xrotation
			JOINT lankle
			{
				OFFSET -0.014790 -0.426874 -0.037428
				CHANNELS 3 Zrotation Yrotation Xrotation
				JOINT ltoe
				{
					OFFSET 0.041054 -0.060286 0.122042
					CHANNELS 3 Zrotation Yrotation Xrotation
					End Site
					{
						OFFSET 0.000000 0.000000 0.000000
					}
				}
			}
		}
	}
	JOINT rhip
	{
		OFFSET -0.060310 -0.090513 -0.013543
		CHANNELS 3 Zrotation Yrotation Xrotation
		JOINT rknee
		{
			OFFSET -0.043257 -0.383688 -0.004843
			CHANNELS 3 Zrotation Yrotation Xrotation
			JOINT rankle
			{
				OFFSET 0.019056 -0.420046 -0.034562
				CHANNELS 3 Zrotation Yrotation Xrotation
				JOINT rtoe
				{
					OFFSET -0.034840 -0.062106 0.130323
					CHANNELS 3 Zrotation Yrotation Xrotation
					End Site
					{
						OFFSET 0.000000 0.000000 0.000000
					}
				}
			}
		}
	}
	JOINT lowerback
	{
		OFFSET 0.004439 0.124404 -0.038385
		CHANNELS 3 Zrotation Yrotation Xrotation
		JOINT upperback
		{
			OFFSET 0.004488 0.137956 0.026820
			CHANNELS 3 Zrotation Yrotation Xrotation
			JOINT chest
			{
				OFFSET -0.002265 0.056032 0.002855
				CHANNELS 3 Zrotation Yrotation Xrotation
				JOINT lowerneck
				{
					OFFSET -0.013390 0.211636 -0.033468
					CHANNELS 3 Zrotation Yrotation Xrotation
					JOINT upperneck
					{
						OFFSET 0.010113 0.088937 0.050410
						CHANNELS 3 Zrotation Yrotation Xrotation
						End Site
						{
							OFFSET 0.000000 0.000000 0.000000
						}
					}
				}
				JOINT lclavicle
				{
					OFFSET 0.071702 0.114000 -0.018898
					CHANNELS 3 Zrotation Yrotation Xrotation
					JOINT lshoulder
					{
						OFFSET 0.122921 0.045205 -0.019046
						CHANNELS 3 Zrotation Yrotation Xrotation
						JOINT lelbow
						{
							OFFSET 0.255332 -0.015649 -0.022946
							CHANNELS 3 Zrotation Yrotation Xrotation
							JOINT lwrist
							{
								OFFSET 0.265709 0.012698 -0.007375
								CHANNELS 3 Zrotation Yrotation Xrotation
								End Site
								{
									OFFSET 0.000000 0.000000 0.000000
								}
							}
						}
					}
				}
				JOINT rclavicle
				{
					OFFSET -0.082954 0.112472 -0.023707
					CHANNELS 3 Zrotation Yrotation Xrotation
					JOINT rshoulder
					{
						OFFSET -0.113228 0.046853 -0.008472
						CHANNELS 3 Zrotation Yrotation Xrotation
						JOINT relbow
						{
							OFFSET -0.260127 -0.014369 -0.031269
							CHANNELS 3 Zrotation Yrotation Xrotation
							JOINT rwrist
							{
								OFFSET -0.269108 0.006794 -0.006027
								CHANNELS 3 Zrotation Yrotation Xrotation
								End Site
								{
									OFFSET 0.000000 0.000000 0.000000
								}
							}
						}
					}
				}
			}
		}
	}
}
MOTION
Frames: 5
Frame Time: 0.033333
-0.076897 1.649480 0.846756 -88.451343 1.735235 86.803363 11.221364 12.829932 -28.602268 -7.787851 20.167498 68.893870 6.105328 17.606589 -42.192705 0.000000 -0.000000 0.000000 -13.784229 -20.601157 -25.960062 -1.161349 -23.048472 75.244494 5.588800 -12.304124 -38.523034 0.000000 -0.000000 0.000000 0.098955 2.317403 18.464383 2.893793 -2.822814 -14.425671 0.604454 0.852365 0.420278 -0.062918 -9.940663 -7.776872 2.008079 -14.861104 -4.983546 3.237253 -6.690317 -7.922273 -13.057757 -12.403724 8.573021 -136.302388 -59.948777 153.674896 34.828214 -18.476568 -6.658638 -1.274024 7.148838 -8.239128 14.047216 9.175835 8.979212 137.550804 64.412878 155.536615 -18.733927 16.435174 4.585968 
-0.078521 1.650847 0.841818 -88.049190 1.772443 86.816412 11.431944 12.670075 -29.101050 -7.273590 20.473035 70.189236 5.989137 17.588456 -42.818517 0.000000 -0.000000 0.000000 -14.030791 -20.776047 -26.124515 -1.798680 -23.285432 76.739944 5.536400 -11.798971 -38.903345 0.000000 -0.000000 0.000000 -0.080525 2.560123 18.381186 3.137772 -2.810710 -14.025640 0.700480 0.655170 0.018099 -0.089960 -9.788437 -7.850358 1.706734 -14.909418 -4.893799 3.163628 -6.771274 -7.937862 -13.218479 -12.746609 8.588846 -136.270433 -60.202947 153.864395 34.516304 -18.324278 -6.809119 -1.296241 6.935692 -8.262465 13.909779 9.313607 8.924438 137.823521 64.403672 156.246343 -18.491651 16.239093 4.224408 
-0.080048 1.651975 0.837716 -87.784774 1.853708 86.801877 11.669255 12.647787 -29.412535 -7.120476 20.590082 71.102698 5.948729 17.702110 -43.332986 0.000000 -0.000000 0.000000 -14.206149 -20.918089 -26.206065 -1.956021 -23.432936 77.833436 5.631440 -11.561391 -39.180440 0.000000 -0.000000 0.000000 -0.132730 2.760732 18.475533 3.257826 -2.753871 -14.000918 0.781244 0.522598 -0.176463 -0.188638 -9.676101 -7.777980 1.511669 -14.818640 -4.865888 3.214184 -6.893391 -7.944228 -13.345116 -12.897779 8.514270 -136.268226 -60.264613 153.976752 34.615245 -18.383041 -6.793829 -1.380740 6.857370 -8.316520 13.930249 9.322981 8.845268 137.945783 64.435691 156.365991 -18.584557 16.192638 3.932754 
-0.081785 1.652883 0.833730 -87.690972 1.956045 86.889704 11.879805 12.619651 -29.763947 -6.845219 20.719920 71.969705 5.944400 17.885586 -43.784900 0.000000 -0.000000 0.000000 -14.296150 -21.040740 -26.403017 -2.047659 -23.571166 78.779542 5.695182 -11.369385 -39.413873 0.000000 -0.000000 0.000000 -0.207998 3.035912 18.376354 3.398034 -2.539285 -13.858130 0.877516 0.429634 -0.396724 -0.328185 -9.487211 -7.673194 1.266289 -14.628168 -4.773321 3.220253 -6.968102 -7.933116 -13.416962 -13.007142 8.479705 -136.656548 -60.262989 154.287363 34.274444 -18.186660 -6.870966 -1.337116 6.754820 -8.351111 13.791178 9.391151 8.667562 138.271258 64.552751 156.675655 -18.111764 16.141202 4.111729 
-0.082661 1.653276 0.832021 -87.694128 1.988558 86.918982 11.964689 12.605076 -29.905851 -6.762785 20.762744 72.346645 5.910521 17.969731 -43.939368 0.000000 -0.000000 0.000000 -14.285445 -21.102431 -26.509782 -2.097821 -23.555534 79.153972 5.696709 -11.346892 -39.513341 0.000000 -0.000000 0.000000 -0.249543 3.137328 18.383662 3.476062 -2.457788 -13.796487 0.962626 0.425178 -0.536649 -0.344450 -9.426770 -7.678531 1.128696 -14.554701 -4.675555 3.170241 -6.864840 -7.969346 -13.410487 -12.993435 8.463165 -136.815217 -60.134374 154.407242 34.257279 -18.135123 -6.970038 -1.234572 6.791048 -8.281203 13.594868 9.528700 8.547923 138.400866 64.675675 156.677317 -18.065772 16.145067 4.118982 
